<?xml version="1.0" encoding="UTF-8"?>
<svg version="1.1" xmlns="http://www.w3.org/2000/svg" width="300" height="210">
<path d="M0 0 C18.66837898 -1.29491646 36.51901988 4.87081679 50.80078125 16.93359375 C54.13740139 20.06871285 57.13467125 23.43257082 60 27 C63.34524949 25.88491684 63.84221693 25.18708058 65.9375 22.5 C77.20318687 9.34884253 93.01611818 2.22521184 110 0 C114.34904043 -0.20280499 118.65136262 -0.19503855 123 0 C119.54330201 1.96792213 116.11206746 2.73821627 112.25 3.625 C99.87536102 6.72554304 88.59996101 12.59258073 79 21 C78.36707031 21.51433594 77.73414063 22.02867188 77.08203125 22.55859375 C73.23517023 25.71646474 69.85042953 28.90250756 67 33 C67.08988812 36.14608405 68.20645989 37.30968983 70 40 C70.47308594 39.3709375 70.94617188 38.741875 71.43359375 38.09375 C82.71544325 23.49112219 96.27961916 14.33563487 114 9 C114.75410156 8.76539063 115.50820312 8.53078125 116.28515625 8.2890625 C126.57337513 5.55346673 138.54894956 5.28982811 149 7 C153.7044145 23.71747295 151.8139705 42.38340416 143.5390625 57.6640625 C138.02683178 66.03034162 130.32810999 73.44792667 122 79 C122.6290625 79.4125 123.258125 79.825 123.90625 80.25 C137.07208088 89.13297023 146.27809717 100.07200152 149.5 116 C149.69247864 117.32985245 149.87139032 118.66245931 150 120 C135.79043683 124.15166367 120.771434 125.35604646 107 119 C89.81626756 109.17425576 81.65511638 91.47638725 74.625 73.8125 C73.82890284 71.83381568 73.0302273 69.85621346 72.22909546 67.87956238 C71.51588684 66.11672897 70.80973712 64.35104448 70.10400391 62.58520508 C69.23871927 60.11452365 69.23871927 60.11452365 68 59 C66.10303084 62.36517131 65.94679965 63.76862867 66.828125 67.6015625 C67.28586697 68.94832934 67.76039699 70.28948604 68.25 71.625 C77.13121597 96.58171303 74.28797955 123.99855873 65.9375 148.6875 C65.69241699 149.41348389 65.44733398 150.13946777 65.19482422 150.88745117 C64.46484375 152.88671875 64.46484375 152.88671875 63 156 C62.01 156.33 61.02 156.66 60 157 C47.22854771 127.75337425 44.36092154 95.18510791 55.6796875 64.91015625 C56.10475982 62.37527376 55.19934961 61.21124702 54 59 C51.89849083 63.67397267 49.83534714 68.36066013 47.8515625 73.0859375 C31.82624476 111.24586893 31.82624476 111.24586893 12.0078125 120.37890625 C-1.1480053 125.08678619 -14.80759356 123.85447701 -28 120 C-25.02646394 104.63673035 -18.61460058 92.62168128 -6 83 C-3.70682982 81.51049129 -1.43944276 80.2456729 1 79 C0.45472656 78.67128906 -0.09054688 78.34257813 -0.65234375 78.00390625 C-14.9349537 68.99487536 -24.13362072 56.44659505 -27.97241211 40.04394531 C-30.11682173 29.48645928 -29.81975047 18.41455284 -27 8 C-24.31596623 5.31596623 -17.57559589 6.13936064 -14 6 C6.94990506 6.12095788 26.83391956 13.41455051 42 28 C45.46166912 31.55490876 48.7609545 35.24102095 52 39 C53.32 37.68 54.64 36.36 56 35 C43.98778072 16.8549599 24.46103376 6.43330488 3.625 1.6875 C1.830625 1.3471875 1.830625 1.3471875 0 1 C0 0.67 0 0.34 0 0 Z M-20 14 C-23.61751336 24.85254007 -20.98892785 38.65225187 -17 49 C-9.07216859 64.73792276 4.74974051 73.91451188 21 80 C22.32 80 23.64 80 25 80 C25 80.66 25 81.32 25 82 C24.34515625 82.02578125 23.6903125 82.0515625 23.015625 82.078125 C11.31382184 82.80535571 0.81467097 86.01027224 -8 94 C-13.22860217 99.97124432 -16.44233377 106.53352093 -19 114 C-11.94784132 117.52607934 1.84992455 115.87204776 9.125 113.5625 C28.22300378 105.07782956 36.08120483 83.1841778 43.35366821 65.21350098 C43.86606375 63.95066645 44.38375562 62.68996744 44.90682983 61.43151855 C45.64574464 59.64518042 46.35851323 57.84809614 47.0703125 56.05078125 C47.70090576 54.48324097 47.70090576 54.48324097 48.34423828 52.8840332 C49.12567458 49.44728451 48.6388796 48.06406409 47 45 C37.0708279 29.35888482 19.82649802 19.00951978 2 15 C-3.02992548 14.12886225 -7.8360367 13.89235431 -12.9375 13.9375 C-13.96327148 13.94426758 -13.96327148 13.94426758 -15.00976562 13.95117188 C-16.67321604 13.9628044 -18.3366205 13.98073306 -20 14 Z M87 32 C86.19820312 32.74636719 85.39640625 33.49273437 84.5703125 34.26171875 C82.3057793 36.44829261 80.14021936 38.69224879 78 41 C77.41347656 41.59683594 76.82695312 42.19367187 76.22265625 42.80859375 C74.48889862 44.65755682 74.48889862 44.65755682 73 48 C73.25064093 49.91189708 73.25064093 49.91189708 74.0625 51.890625 C74.35350586 52.68339844 74.64451172 53.47617187 74.94433594 54.29296875 C75.29270508 55.18628906 75.64107422 56.07960937 76 57 C76.38704102 58.00675781 76.77408203 59.01351562 77.17285156 60.05078125 C88.37944461 91.80784295 88.37944461 91.80784295 112.80859375 113.23046875 C118.30017472 115.15888489 123.34698687 115.18341371 129.125 115.1875 C130.04410156 115.19974609 130.96320313 115.21199219 131.91015625 115.22460938 C132.78800781 115.22654297 133.66585937 115.22847656 134.5703125 115.23046875 C135.77324951 115.23663208 135.77324951 115.23663208 137.00048828 115.24291992 C139.23058629 115.18052464 139.23058629 115.18052464 141 113 C134.51829532 99.1736418 128.63899193 89.82796521 113.625 84.1875 C108.21197727 82.53541048 102.62483072 82.27600692 97 82 C97 81.34 97 80.68 97 80 C98.52173828 79.84724609 98.52173828 79.84724609 100.07421875 79.69140625 C113.62451893 77.30493547 127.17913053 67.09071954 135 56 C140.89511926 45.92520033 143.34884639 37.19098844 143.1875 25.625 C143.18685547 24.72394531 143.18621094 23.82289062 143.18554688 22.89453125 C143.31266824 18.29241866 143.31266824 18.29241866 142 14 C121.62397742 13.22947814 102.19822741 17.72849377 87 32 Z M60 42 C58.515 45.465 58.515 45.465 57 49 C58.65 50.65 60.3 52.3 62 54 C63.73666727 51.80167287 63.73666727 51.80167287 65 49 C64.35336433 46.2995961 64.35336433 46.2995961 63 44 C62.67 43.34 62.34 42.68 62 42 C61.34 42 60.68 42 60 42 Z M61 76 C60.34727539 78.33159304 59.70274798 80.66497796 59.0625 83 C58.88009766 83.64839844 58.69769531 84.29679687 58.50976562 84.96484375 C55.90349294 94.53697252 55.76269036 103.93688836 55.75 113.8125 C55.74832825 114.49720367 55.74665649 115.18190735 55.74493408 115.88735962 C55.28716854 135.09473726 55.28716854 135.09473726 61 153 C72.98307434 132.56133641 67.38441075 97.68122729 62 76 C61.67 76 61.34 76 61 76 Z " fill="#012B5D" transform="translate(89,0)"/>
<path d="M0 0 C0.99 0.33 1.98 0.66 3 1 C4.39092124 4.17500954 5.54648928 7.3512084 6.66210938 10.62890625 C7.45910224 12.91186053 7.45910224 12.91186053 9 16 C10.32 16.33 11.64 16.66 13 17 C13 12.05 13 7.1 13 2 C12.34 2 11.68 2 11 2 C11 1.34 11 0.68 11 0 C12.98 0 14.96 0 17 0 C17.41572266 0.93972656 17.41572266 0.93972656 17.83984375 1.8984375 C18.20207031 2.71570313 18.56429687 3.53296875 18.9375 4.375 C19.29714844 5.18710938 19.65679687 5.99921875 20.02734375 6.8359375 C20.6569903 8.23683785 21.31312642 9.62625284 22 11 C23.65 7.37 25.3 3.74 27 0 C35.58 0 44.16 0 53 0 C53 0.66 53 1.32 53 2 C52.01 2 51.02 2 50 2 C50.495 8.93 50.495 8.93 51 16 C53.31 16 55.62 16 58 16 C58 14.68 58 13.36 58 12 C58.66 12 59.32 12 60 12 C60 13.98 60 15.96 60 18 C56.4937557 19.1687481 53.3522134 19.12514267 49.70703125 19.09765625 C48.64798836 19.09553383 48.64798836 19.09553383 47.56755066 19.09336853 C45.31582374 19.08777764 43.06419679 19.07522688 40.8125 19.0625 C39.28450665 19.05748382 37.75651173 19.05292112 36.22851562 19.04882812 C32.48563865 19.0378112 28.74283627 19.02055287 25 19 C25 18.34 25 17.68 25 17 C25.66 17 26.32 17 27 17 C26.505 13.535 26.505 13.535 26 10 C24.68 12.64 23.36 15.28 22 18 C21.34 18 20.68 18 20 18 C18.68 15.03 17.36 12.06 16 9 C16 11.31 16 13.62 16 16 C16.66 16.33 17.32 16.66 18 17 C18 17.66 18 18.32 18 19 C12.72 19 7.44 19 2 19 C2 18.34 2 17.68 2 17 C2.66 17 3.32 17 4 17 C3.67 15.68 3.34 14.36 3 13 C1.35 13 -0.3 13 -2 13 C-2.33 13.99 -2.66 14.98 -3 16 C-2.34 16.33 -1.68 16.66 -1 17 C-1 17.66 -1 18.32 -1 19 C-3.31 19 -5.62 19 -8 19 C-8.33 18.34 -8.66 17.68 -9 17 C-8.01 16.34 -7.02 15.68 -6 15 C-4.82742191 12.46084063 -3.78828306 9.98672552 -2.8125 7.375 C-2.40354492 6.31539062 -2.40354492 6.31539062 -1.98632812 5.234375 C-1.31561444 3.49287279 -0.65666222 1.74684902 0 0 Z M31 2 C31 6.62 31 11.24 31 16 C33.475 16.495 33.475 16.495 36 17 C37.33210219 15.89259422 37.33210219 15.89259422 37.1328125 13.09375 C37.13023437 11.9078125 37.12765625 10.721875 37.125 9.5 C37.12886719 7.72109375 37.12886719 7.72109375 37.1328125 5.90625 C37.33210219 3.10740578 37.33210219 3.10740578 36 2 C34.35 2 32.7 2 31 2 Z M43 1 C42.01 1.495 42.01 1.495 41 2 C41 6.95 41 11.9 41 17 C42.65 16.67 44.3 16.34 46 16 C46 11.38 46 6.76 46 2 C45.01 1.67 44.02 1.34 43 1 Z M0 6 C-0.33 7.32 -0.66 8.64 -1 10 C-0.01 9.67 0.98 9.34 2 9 C1.34 8.01 0.68 7.02 0 6 Z " fill="#E646CA" transform="translate(223,170)"/>
<path d="M0 0 C4.95 0 9.9 0 15 0 C15.33 1.65 15.66 3.3 16 5 C15.34 5 14.68 5 14 5 C13.67 4.34 13.34 3.68 13 3 C9.97065509 2.34227572 9.97065509 2.34227572 7 2 C7 3.98 7 5.96 7 8 C7.680625 7.2575 7.680625 7.2575 8.375 6.5 C10 5 10 5 12 5 C12 7.64 12 10.28 12 13 C10 13 10 13 8.375 11.5 C7.92125 11.005 7.4675 10.51 7 10 C7.33 11.98 7.66 13.96 8 16 C10.31 16 12.62 16 15 16 C15 14.68 15 13.36 15 12 C15.66 12 16.32 12 17 12 C17 13.65 17 15.3 17 17 C17.66 17 18.32 17 19 17 C19 12.05 19 7.1 19 2 C18.34 2 17.68 2 17 2 C17 1.34 17 0.68 17 0 C18.98 0 20.96 0 23 0 C25.475 5.445 25.475 5.445 28 11 C29.65 7.37 31.3 3.74 33 0 C36.29188269 -0.05376941 39.58289426 -0.09356106 42.875 -0.125 C43.81214844 -0.14175781 44.74929687 -0.15851563 45.71484375 -0.17578125 C46.61074219 -0.18222656 47.50664063 -0.18867188 48.4296875 -0.1953125 C49.25710449 -0.20578613 50.08452148 -0.21625977 50.93701172 -0.22705078 C53 0 53 0 55 2 C55.125 4.5 55.125 4.5 55 7 C55 7.66 55 8.32 55 9 C55.66 9.66 56.32 10.32 57 11 C57.4375 13.4375 57.4375 13.4375 57 16 C52.33966091 20.22030707 46.57564491 19.33442108 40.6875 19.1875 C39.66076172 19.17396484 38.63402344 19.16042969 37.57617188 19.14648438 C35.05024091 19.11123883 32.5253934 19.061967 30 19 C30 18.34 30 17.68 30 17 C30.66 16.67 31.32 16.34 32 16 C32 14.02 32 12.04 32 10 C30.68 12.64 29.36 15.28 28 18 C27.34 18 26.68 18 26 18 C24.68 15.03 23.36 12.06 22 9 C22 11.31 22 13.62 22 16 C22.66 16.33 23.32 16.66 24 17 C24 17.66 24 18.32 24 19 C16.08 19 8.16 19 0 19 C0 18.34 0 17.68 0 17 C0.66 16.67 1.32 16.34 2 16 C2.47001033 12.72444392 2.47001033 12.72444392 2.625 8.9375 C2.69976562 7.64714844 2.77453125 6.35679687 2.8515625 5.02734375 C2.90054688 4.02832031 2.94953125 3.02929688 3 2 C2.01 2 1.02 2 0 2 C0 1.34 0 0.68 0 0 Z M37 2 C37 6.62 37 11.24 37 16 C39.475 16.495 39.475 16.495 42 17 C43.36532549 15.86298403 43.36532549 15.86298403 43.09765625 12.83984375 C43.08605469 11.55207031 43.07445312 10.26429688 43.0625 8.9375 C43.05347656 7.64714844 43.04445313 6.35679687 43.03515625 5.02734375 C43.02355469 4.02832031 43.01195312 3.02929688 43 2 C39.95086772 0.98888907 39.95086772 0.98888907 37 2 Z M46 2 C46 3.98 46 5.96 46 8 C47.65 7.67 49.3 7.34 51 7 C51 5.35 51 3.7 51 2 C49.35 2 47.7 2 46 2 Z M46 10 C46.33 12.31 46.66 14.62 47 17 C48.65 16.67 50.3 16.34 52 16 C53.01111093 12.95086772 53.01111093 12.95086772 52 10 C50.02 10 48.04 10 46 10 Z " fill="#E646CA" transform="translate(62,170)"/>
<path d="M0 0 C9.24 0 18.48 0 28 0 C28 0.66 28 1.32 28 2 C27.01 2 26.02 2 25 2 C25 3.98 25 5.96 25 8 C27.64 8 30.28 8 33 8 C33 6.02 33 4.04 33 2 C32.01 2 31.02 2 30 2 C30 1.34 30 0.68 30 0 C32.97 0 35.94 0 39 0 C39 0.66 39 1.32 39 2 C38.34 2 37.68 2 37 2 C37 6.95 37 11.9 37 17 C37.66 17 38.32 17 39 17 C39 17.66 39 18.32 39 19 C36.03 19 33.06 19 30 19 C30 18.34 30 17.68 30 17 C30.66 16.67 31.32 16.34 32 16 C32.65772428 12.97065509 32.65772428 12.97065509 33 10 C30.36 10 27.72 10 25 10 C25 12.31 25 14.62 25 17 C25.99 17 26.98 17 28 17 C28 17.66 28 18.32 28 19 C24.7 19 21.4 19 18 19 C18 18.34 18 17.68 18 17 C18.66 16.67 19.32 16.34 20 16 C20.47001033 12.72444392 20.47001033 12.72444392 20.625 8.9375 C20.69976563 7.64714844 20.77453125 6.35679687 20.8515625 5.02734375 C20.90054687 4.02832031 20.94953125 3.02929688 21 2 C20.34 2 19.68 2 19 2 C19 3.32 19 4.64 19 6 C18.34 6 17.68 6 17 6 C16.67 5.01 16.34 4.02 16 3 C14.35 2.67 12.7 2.34 11 2 C11.11341637 4.31309705 11.24103807 6.62550185 11.375 8.9375 C11.44460938 10.22527344 11.51421875 11.51304687 11.5859375 12.83984375 C11.72257813 13.88269531 11.85921875 14.92554688 12 16 C12.66 16.33 13.32 16.66 14 17 C14 17.66 14 18.32 14 19 C10.7 19 7.4 19 4 19 C4 18.34 4 17.68 4 17 C4.99 17 5.98 17 7 17 C7 12.05 7 7.1 7 2 C5.35 2 3.7 2 2 2 C1.34 3.32 0.68 4.64 0 6 C0 4.02 0 2.04 0 0 Z " fill="#E646CA" transform="translate(0,170)"/>
<path d="M0 0 C54.12 0 108.24 0 164 0 C164 0.66 164 1.32 164 2 C109.88 2 55.76 2 0 2 C0 1.34 0 0.68 0 0 Z " fill="#012B5D" transform="translate(0,202)"/>
<path d="M0 0 C3.76991795 0.70685962 5.40418092 1.74418215 8 4.5625 C9.23674251 8.19543114 9.34458203 9.80441953 7.75 13.3125 C5.46468196 16.25076605 3.84253177 17.45260455 0.125 17.9375 C-3.87773372 17.45717195 -5.38593772 16.63786739 -8 13.5625 C-8.7975483 8.53794571 -8.82360163 6.72523171 -5.875 2.5625 C-3 0.5625 -3 0.5625 0 0 Z " fill="#E545C9" transform="translate(150,1.4375)"/>
<path d="M0 0 C1.7492214 -0.08142927 3.49954542 -0.13938541 5.25 -0.1875 C6.22453125 -0.22230469 7.1990625 -0.25710937 8.203125 -0.29296875 C11.37468742 0.03924798 12.67040307 0.88672279 15 3 C14.47731534 5.76276177 13.89130413 8.3260876 13 11 C14.28511874 13.03131672 15.61876037 15.03277992 17 17 C17 17.66 17 18.32 17 19 C14.125 18.375 14.125 18.375 11 17 C9.625 13.875 9.625 13.875 9 11 C8.34 11 7.68 11 7 11 C7 12.65 7 14.3 7 16 C7.66 16.33 8.32 16.66 9 17 C9 17.66 9 18.32 9 19 C6.03 19 3.06 19 0 19 C0 18.34 0 17.68 0 17 C0.66 17 1.32 17 2 17 C2 12.05 2 7.1 2 2 C1.34 2 0.68 2 0 2 C0 1.34 0 0.68 0 0 Z M6 2 C6 3.98 6 5.96 6 8 C7.32 8 8.64 8 10 8 C10 6.35 10 4.7 10 3 C8.68 2.67 7.36 2.34 6 2 Z " fill="#E646CA" transform="translate(120,170)"/>
<path d="M0 0 C2.7265625 -0.3125 2.7265625 -0.3125 6 0 C8.3359375 2.1875 8.3359375 2.1875 10.375 5 C11.06335938 5.928125 11.75171875 6.85625 12.4609375 7.8125 C12.96882812 8.534375 13.47671875 9.25625 14 10 C14.33 7.36 14.66 4.72 15 2 C14.01 2 13.02 2 12 2 C12 1.34 12 0.68 12 0 C14.64 0 17.28 0 20 0 C19.67 0.66 19.34 1.32 19 2 C18.34 2 17.68 2 17 2 C17 7.61 17 13.22 17 19 C11.90358368 14.7529864 9.47896211 12.21844317 6 7 C5.67 9.97 5.34 12.94 5 16 C5.66 16.33 6.32 16.66 7 17 C7 17.66 7 18.32 7 19 C4.69 19 2.38 19 0 19 C0 18.34 0 17.68 0 17 C0.66 17 1.32 17 2 17 C1.98839844 16.08476562 1.97679687 15.16953125 1.96484375 14.2265625 C1.95582031 13.03804687 1.94679687 11.84953125 1.9375 10.625 C1.92589844 9.44164062 1.91429687 8.25828125 1.90234375 7.0390625 C2 4 2 4 3 2 C2.01 2 1.02 2 0 2 C0 1.34 0 0.68 0 0 Z " fill="#E646CA" transform="translate(175,170)"/>
<path d="M0 0 C2.875 -0.125 2.875 -0.125 6 0 C6.66 0.66 7.32 1.32 8 2 C8.639375 1.835 9.27875 1.67 9.9375 1.5 C10.618125 1.335 11.29875 1.17 12 1 C12.99 1.66 13.98 2.32 15 3 C15.804375 2.4740625 15.804375 2.4740625 16.625 1.9375 C19.73274763 0.71075751 21.79431703 1.27143569 25 2 C25.36103152 8.3782235 25.36103152 8.3782235 23.875 10.9375 C21.214973 12.44484863 18.99793795 12.19986253 16 12 C15.67 10.68 15.34 9.36 15 8 C13.8553125 8.556875 13.8553125 8.556875 12.6875 9.125 C11.800625 9.41375 10.91375 9.7025 10 10 C9.01 9.34 8.02 8.68 7 8 C6.67 8.33 6.34 8.66 6 9 C4.00041636 9.04080783 1.99954746 9.04254356 0 9 C0 6.03 0 3.06 0 0 Z M17 4 C17 4.99 17 5.98 17 7 C17.99 7 18.98 7 20 7 C20 6.01 20 5.02 20 4 C19.01 4 18.02 4 17 4 Z M2 5 C2 5.66 2 6.32 2 7 C2.99 7 3.98 7 5 7 C5 6.34 5 5.68 5 5 C4.01 5 3.02 5 2 5 Z M9 6 C13 7 13 7 13 7 Z " fill="#012B5D" transform="translate(235,198)"/>
<path d="M0 0 C4.62 0 9.24 0 14 0 C14.33 1.65 14.66 3.3 15 5 C14.34 5 13.68 5 13 5 C12.67 4.34 12.34 3.68 12 3 C8.97065509 2.34227572 8.97065509 2.34227572 6 2 C6 3.98 6 5.96 6 8 C6.99 8 7.98 8 9 8 C9 7.01 9 6.02 9 5 C9.66 5 10.32 5 11 5 C11 7.64 11 10.28 11 13 C10.34 13 9.68 13 9 13 C9 12.01 9 11.02 9 10 C8.01 10 7.02 10 6 10 C6 11.98 6 13.96 6 16 C8.64 16 11.28 16 14 16 C14 14.68 14 13.36 14 12 C14.66 12 15.32 12 16 12 C16 13.98 16 15.96 16 18 C10.62915894 18.68201156 5.41499441 19.11521265 0 19 C0 18.34 0 17.68 0 17 C0.66 17 1.32 17 2 17 C2 12.05 2 7.1 2 2 C1.34 2 0.68 2 0 2 C0 1.34 0 0.68 0 0 Z " fill="#E646CA" transform="translate(40,170)"/>
<path d="M0 0 C4.57627119 3.15254237 4.57627119 3.15254237 6 6 C6.3689566 9.91093991 6.33226705 12.33546589 4.5625 15.875 C1.01400713 18.81765262 -2.43698994 19.31330527 -7 19 C-10.14400806 17.80471045 -10.90219279 17.14839714 -12.8125 14.25 C-14.19465435 10.46726177 -14.29342871 8.79944684 -13 5 C-8.62819336 -0.04439228 -6.55928662 -1.67197502 0 0 Z M-7.25 2 C-9.78958959 4.9023881 -9.86887544 7.19738781 -10 11 C-9.18028284 13.84902067 -9.18028284 13.84902067 -8 16 C-5.69 16.33 -3.38 16.66 -1 17 C1.47114386 14.42589181 1.98892624 13.12402615 2.3125 9.5 C2.01199295 5.39200055 2.01199295 5.39200055 0 2 C-2.96113898 0.83112935 -4.32746468 0.70109541 -7.25 2 Z " fill="#E646CA" transform="translate(168,170)"/>
<path d="M0 0 C0.99 0 1.98 0 3 0 C3.66 0.99 4.32 1.98 5 3 C5.33 2.01 5.66 1.02 6 0 C6.66 0 7.32 0 8 0 C8.33 0.66 8.66 1.32 9 2 C10.093125 1.79375 11.18625 1.5875 12.3125 1.375 C16 1 16 1 19 3 C19.99 2.67 20.98 2.34 22 2 C22 2.66 22 3.32 22 4 C22.66 4 23.32 4 24 4 C24 3.34 24 2.68 24 2 C24.66 2 25.32 2 26 2 C25.34 4.31 24.68 6.62 24 9 C23.34 9 22.68 9 22 9 C21.67 8.34 21.34 7.68 21 7 C20.67 7.66 20.34 8.32 20 9 C19.1646875 8.690625 19.1646875 8.690625 18.3125 8.375 C15.340462 7.89304789 13.68020059 8.73434972 11 10 C10.34 9.34 9.68 8.68 9 8 C7.68 8 6.36 8 5 8 C4.34 7.01 3.68 6.02 3 5 C2.67 6.32 2.34 7.64 2 9 C1.34 9 0.68 9 0 9 C0 6.03 0 3.06 0 0 Z M10 6 C14 7 14 7 14 7 Z " fill="#012B5D" transform="translate(206,198)"/>
<path d="M0 0 C4.95 0 9.9 0 15 0 C15 1.65 15 3.3 15 5 C14.34 5 13.68 5 13 5 C12.67 4.34 12.34 3.68 12 3 C9.47266765 2.34444881 9.47266765 2.34444881 7 2 C7 3.98 7 5.96 7 8 C7.66 7.67 8.32 7.34 9 7 C9.33 6.01 9.66 5.02 10 4 C10.66 4 11.32 4 12 4 C12 6.97 12 9.94 12 13 C11.34 13 10.68 13 10 13 C10 12.01 10 11.02 10 10 C9.01 10 8.02 10 7 10 C7 12.31 7 14.62 7 17 C7.99 17.33 8.98 17.66 10 18 C6.52674819 19.1577506 3.63932552 19.06866652 0 19 C0 18.34 0 17.68 0 17 C0.66 16.67 1.32 16.34 2 16 C2.47001033 12.72444392 2.47001033 12.72444392 2.625 8.9375 C2.69976562 7.64714844 2.77453125 6.35679687 2.8515625 5.02734375 C2.90054688 4.02832031 2.94953125 3.02929688 3 2 C2.01 2 1.02 2 0 2 C0 1.34 0 0.68 0 0 Z " fill="#E646CA" transform="translate(201,170)"/>
<path d="M0 0 C3.3 0 6.6 0 10 0 C10 0.66 10 1.32 10 2 C9.34 2 8.68 2 8 2 C8.99 3.65 9.98 5.3 11 7 C11.99 5.35 12.98 3.7 14 2 C13.34 2 12.68 2 12 2 C12 1.34 12 0.68 12 0 C14.31 0 16.62 0 19 0 C19 2 19 2 17.125 3.9375 C16.42375 4.618125 15.7225 5.29875 15 6 C12.5705484 9.6441774 12.83820425 11.71241272 13 16 C13.66 16.33 14.32 16.66 15 17 C15 17.66 15 18.32 15 19 C11.7 19 8.4 19 5 19 C5 18.34 5 17.68 5 17 C5.66 16.67 6.32 16.34 7 16 C7.45452339 10.31845765 6.66636232 7.39963479 3 3 C2.01 2.67 1.02 2.34 0 2 C0 1.34 0 0.68 0 0 Z " fill="#E646CA" transform="translate(281,170)"/>
<path d="M0 0 C0.928125 0.5259375 0.928125 0.5259375 1.875 1.0625 C4.05253915 2.31656394 4.05253915 2.31656394 6.5625 1.0625 C7.366875 0.711875 8.17125 0.36125 9 0 C9.99 0.33 10.98 0.66 12 1 C12 2.32 12 3.64 12 5 C12.103125 4.360625 12.20625 3.72125 12.3125 3.0625 C12.539375 2.381875 12.76625 1.70125 13 1 C13.99 0.67 14.98 0.34 16 0 C16.66 0.33 17.32 0.66 18 1 C18 3.31 18 5.62 18 8 C17.01 8.33 16.02 8.66 15 9 C14.34 8.67 13.68 8.34 13 8 C12.01 9.485 12.01 9.485 11 11 C7.875 11.1875 7.875 11.1875 5 11 C4.67 10.01 4.34 9.02 4 8 C3.34 8 2.68 8 2 8 C2 6.35 2 4.7 2 3 C1.01 3 0.02 3 -1 3 C-1 4.65 -1 6.3 -1 8 C-1.66 8 -2.32 8 -3 8 C-3 5.69 -3 3.38 -3 1 C-2.01 0.67 -1.02 0.34 0 0 Z M6 3 C6 3.99 6 4.98 6 6 C7.32 6 8.64 6 10 6 C10 5.01 10 4.02 10 3 C8.68 3 7.36 3 6 3 Z M4 6 C4 6.66 4 7.32 4 8 C4.66 7.67 5.32 7.34 6 7 C5.34 6.67 4.68 6.34 4 6 Z " fill="#012B5D" transform="translate(282,199)"/>
<path d="M0 0 C3.3 0 6.6 0 10 0 C10 0.66 10 1.32 10 2 C9.34 2 8.68 2 8 2 C8.99 3.65 9.98 5.3 11 7 C12.62831762 5.19038423 12.62831762 5.19038423 14 3 C13.67 2.01 13.34 1.02 13 0 C15.31 0 17.62 0 20 0 C20 0.66 20 1.32 20 2 C19.01 2.33 18.02 2.66 17 3 C13.88411004 7.5402968 12.45001082 10.36261092 13 16 C13.66 16.33 14.32 16.66 15 17 C15 17.66 15 18.32 15 19 C12.03 19 9.06 19 6 19 C6 18.34 6 17.68 6 17 C6.66 17 7.32 17 8 17 C7.74279326 15.41439607 7.46861201 13.83154076 7.1875 12.25 C6.96126953 10.92742187 6.96126953 10.92742187 6.73046875 9.578125 C5.93021173 6.75368844 4.99272526 5.14230028 3 3 C2.01 2.67 1.02 2.34 0 2 C0 1.34 0 0.68 0 0 Z " fill="#E646CA" transform="translate(135,170)"/>
<path d="M0 0 C0.33 0.99 0.66 1.98 1 3 C1.8971875 2.6596875 1.8971875 2.6596875 2.8125 2.3125 C5 2 5 2 6.75 3.1875 C8 5 8 5 8 9 C6.35 9.66 4.7 10.32 3 11 C2.01 10.01 1.02 9.02 0 8 C-0.33 8.66 -0.66 9.32 -1 10 C-4.3 10 -7.6 10 -11 10 C-11 7.03 -11 4.06 -11 1 C-10.34 1 -9.68 1 -9 1 C-9 3.31 -9 5.62 -9 8 C-8.34 8 -7.68 8 -7 8 C-6.9175 7.236875 -6.835 6.47375 -6.75 5.6875 C-5.75308799 2.11523197 -3.86720593 0 0 0 Z M2 7 C6 8 6 8 6 8 Z " fill="#012B5D" transform="translate(187,197)"/>
<path d="M0 0 C0 2.31 0 4.62 0 7 C-1.65 7 -3.3 7 -5 7 C-5 5.35 -5 3.7 -5 2 C-5.66 2 -6.32 2 -7 2 C-7 3.65 -7 5.3 -7 7 C-7.66 7 -8.32 7 -9 7 C-9 4.69 -9 2.38 -9 0 C-5.93109813 -1.53445094 -3.29905734 -0.54984289 0 0 Z " fill="#012B5D" transform="translate(278,200)"/>
<path d="M0 0 C2.125 0.9375 2.125 0.9375 4 2 C4 3.65 4 5.3 4 7 C2.02 7.99 2.02 7.99 0 9 C-0.99 8.34 -1.98 7.68 -3 7 C-2.625 4.0625 -2.625 4.0625 -2 1 C-1.34 0.67 -0.68 0.34 0 0 Z " fill="#012B5D" transform="translate(199,199)"/>
<path d="M0 0 C0.598125 0.350625 1.19625 0.70125 1.8125 1.0625 C1.8125 3.0425 1.8125 5.0225 1.8125 7.0625 C1.1525 7.0625 0.4925 7.0625 -0.1875 7.0625 C-0.1875 5.4125 -0.1875 3.7625 -0.1875 2.0625 C-1.1775 2.0625 -2.1675 2.0625 -3.1875 2.0625 C-3.1875 3.7125 -3.1875 5.3625 -3.1875 7.0625 C-3.8475 7.0625 -4.5075 7.0625 -5.1875 7.0625 C-5.1875 4.7525 -5.1875 2.4425 -5.1875 0.0625 C-2.1875 -0.9375 -2.1875 -0.9375 0 0 Z " fill="#012B5D" transform="translate(266.1875,199.9375)"/>
<path d="M0 0 C0.66 0 1.32 0 2 0 C2 1.32 2 2.64 2 4 C1.34 4 0.68 4 0 4 C-0.33 3.01 -0.66 2.02 -1 1 C-0.67 0.67 -0.34 0.34 0 0 Z " fill="#012B5D" transform="translate(195,196)"/>
<path d="M0 0 C0.99 0 1.98 0 3 0 C3 0.66 3 1.32 3 2 C2.01 2 1.02 2 0 2 C0 1.34 0 0.68 0 0 Z " fill="#012B5D" transform="translate(276,197)"/>
<path d="M0 0 C0.66 0 1.32 0 2 0 C2 0.66 2 1.32 2 2 C1.34 2 0.68 2 0 2 C0 1.34 0 0.68 0 0 Z " fill="#012B5D" transform="translate(258,197)"/>
<path d="M0 0 C0.66 0 1.32 0 2 0 C2 0.66 2 1.32 2 2 C1.34 2 0.68 2 0 2 C0 1.34 0 0.68 0 0 Z " fill="#012B5D" transform="translate(181,197)"/>
</svg>
