<?xml version="1.0" encoding="UTF-8"?>
<svg version="1.1" xmlns="http://www.w3.org/2000/svg" width="250" height="175">
<path d="M0 0 C17.46957027 -0.94524729 31.43314647 4.72818427 44.72265625 15.8515625 C46.77300176 17.78585072 48.40331191 19.68611104 50 22 C52.64012347 20.96280864 53.9132487 20.1167806 55.625 17.8125 C64.48356263 7.32209689 77.93375075 2.58630913 91 0 C94.70238133 -0.27111259 98.2995234 -0.27695875 102 0 C99.10351235 1.93099176 97.6131602 2.40724541 94.3125 3.125 C79.12383407 7.13367973 65.74012689 15.69668182 56 28 C56.99 30.475 56.99 30.475 58 33 C58.67804688 32.21496094 59.35609375 31.42992188 60.0546875 30.62109375 C73.06881917 15.81751898 88.22985259 7.36313395 108 5 C110.60196301 4.8642908 113.2071868 4.78117025 115.8125 4.75 C117.11832031 4.72421875 118.42414063 4.6984375 119.76953125 4.671875 C120.83558594 4.78015625 121.90164062 4.8884375 123 5 C128.21634075 12.82451113 126.93548069 25.68579341 125.3515625 34.68359375 C121.95137312 46.78768671 115.23792097 56.62595307 105 64 C102.69921875 64.7421875 102.69921875 64.7421875 101 65 C101 65.66 101 66.32 101 67 C101.87205078 67.17015625 101.87205078 67.17015625 102.76171875 67.34375 C110.3006372 69.55411352 115.98576572 76.58891709 120 83 C125.3806031 93.6796819 125.3806031 93.6796819 125 100 C112.7936695 104.46573067 100.75935098 104.19897445 89 98.875 C73.37304036 90.64272723 67.32710643 73.80422674 60.97851562 58.36914062 C59.68301737 55.23253507 58.34500799 52.11565142 57 49 C55.85127825 53.8275395 56.26441564 56.83485909 57.875 61.5 C63.93004127 79.28403729 62.60253456 100.23633239 57 118 C56.47986328 119.81177734 56.47986328 119.81177734 55.94921875 121.66015625 C54.1324529 127.65758792 54.1324529 127.65758792 53 130 C52.01 130.33 51.02 130.66 50 131 C40.87525172 108.52772349 37.16777365 85.27551484 44.02734375 61.5234375 C45.27093073 57.01855614 46 52.67537537 46 48 C45.34 48 44.68 48 44 48 C43.92265625 48.77730469 43.8453125 49.55460937 43.765625 50.35546875 C42.72526417 55.3077986 40.7723606 59.68855902 38.75 64.3125 C38.17572266 65.66118164 38.17572266 65.66118164 37.58984375 67.03710938 C31.35466267 81.45726897 23.46075625 94.64093791 8.40234375 101.1171875 C-1.02538477 104.58168611 -11.44343896 103.2730015 -21 101 C-21.66 100.67 -22.32 100.34 -23 100 C-22.08042393 89.19498115 -16.50021129 78.67924483 -8.3125 71.5625 C-2.65811966 67 -2.65811966 67 1 67 C1 66.34 1 65.68 1 65 C0.01 64.7215625 0.01 64.7215625 -1 64.4375 C-11.99466754 59.1692218 -17.99331445 48.3475556 -22.2734375 37.38671875 C-25.27180904 27.53722944 -25.3157958 15.75234058 -22 6 C-20.09988293 4.09988293 -16.90467939 4.78142459 -14.375 4.75 C4.85956022 4.7615634 23.10072959 11.19850514 37.0625 24.625 C40.01027611 27.57810663 41.65895518 30.03940131 43 34 C43.66 34 44.32 34 45 34 C45.84793279 31.2388347 45.84793279 31.2388347 46 28 C37.52910151 13.91087063 20.02712194 5.95747922 4.72387695 2.11645508 C3.15149357 1.73494056 1.57606105 1.36602511 0 1 C0 0.67 0 0.34 0 0 Z M-17 12 C-17.53621094 26.23937951 -17.65707284 38.57370963 -7.89453125 49.98046875 C-7.26933594 50.64691406 -6.64414063 51.31335937 -6 52 C-5.42636719 52.61488281 -4.85273437 53.22976562 -4.26171875 53.86328125 C1.68611825 59.60733797 10.28483967 64.61852085 18.359375 66.5703125 C18.90078125 66.71210937 19.4421875 66.85390625 20 67 C20.33 67.66 20.66 68.32 21 69 C19.783125 68.896875 18.56625 68.79375 17.3125 68.6875 C8.83837618 68.70088724 -0.36943169 72.29030706 -6.50390625 78.1953125 C-10.67941342 83.23208616 -14.00011816 88.47751496 -15 95 C-7.80792452 97.39735849 1.76865501 97.03834075 8.84765625 94.23046875 C22.39788687 86.48396667 28.3048502 73.13094282 33.9921875 59.3828125 C34.98666797 57.03152147 36.05070807 54.72194593 37.125 52.40625 C40.63789365 44.90941967 40.63789365 44.90941967 39.90234375 36.99609375 C37.81586879 34.27911344 35.61875514 32.20314377 33 30 C32.31808594 29.29617187 31.63617188 28.59234375 30.93359375 27.8671875 C20.96028379 17.91280222 6.53931676 11.95336365 -7.46533203 11.80444336 C-10.64656274 11.81597716 -13.82055858 11.89228994 -17 12 Z M66 33 C65.46842285 33.52126465 64.9368457 34.0425293 64.38916016 34.57958984 C62.55271967 36.75279879 61.67547413 38.21982273 61 41 C61.9950722 46.23658214 64.09703352 50.91176627 66.25 55.75 C66.79471691 57.05602365 67.33641082 58.36331244 67.875 59.671875 C73.5901055 73.32004152 80.01675432 87.80110788 94.140625 94.30859375 C98.66965763 95.99270882 102.71267878 96.16379608 107.5625 96.1875 C108.23474609 96.19974609 108.90699219 96.21199219 109.59960938 96.22460938 C113.29878237 96.23562975 114.83971933 96.10685378 118 94 C112.50965696 82.59038087 107.46078705 75.15381636 95.19921875 70.7265625 C94.47347656 70.48679688 93.74773437 70.24703125 93 70 C91.515 69.505 91.515 69.505 90 69 C88.43881572 68.93259135 86.8749748 68.91485544 85.3125 68.9375 C84.50425781 68.94652344 83.69601563 68.95554688 82.86328125 68.96484375 C82.24839844 68.97644531 81.63351563 68.98804688 81 69 C82 67 82 67 84.1171875 66.17578125 C85.02726562 65.89089844 85.93734375 65.60601562 86.875 65.3125 C99.24264544 60.9653769 109.4144673 53.49634102 115.4375 41.75 C117.81381149 36.75132841 119.13316083 32.77308929 119.09765625 27.234375 C119.09443359 26.34492188 119.09121094 25.45546875 119.08789062 24.5390625 C119.07951172 23.61867188 119.07113281 22.69828125 119.0625 21.75 C119.05798828 20.81414063 119.05347656 19.87828125 119.04882812 18.9140625 C119.03706918 16.60930959 119.02063426 14.30468773 119 12 C97.94093261 11.01542023 80.51941178 17.01259082 66 33 Z M50 35 C48.17339803 39.12148343 48.17339803 39.12148343 48.875 43.375 C49.24625 43.91125 49.6175 44.4475 50 45 C50.66 45 51.32 45 52 45 C53.82660197 40.87851657 53.82660197 40.87851657 53.125 36.625 C52.75375 36.08875 52.3825 35.5525 52 35 C51.34 35 50.68 35 50 35 Z M51 64 C46.7294649 73.9141822 46.64106337 84.6089769 46.6875 95.25 C46.69023926 96.5174707 46.69297852 97.78494141 46.69580078 99.09082031 C46.79701018 108.18105334 47.12480692 117.295287 50 126 C50.66 126.33 51.32 126.66 52 127 C54.93045479 116.39454457 55.33315663 105.86622787 55.375 94.9375 C55.38249268 94.26452881 55.38998535 93.59155762 55.39770508 92.89819336 C55.48924948 82.85150021 54.30057209 73.73419738 52 64 C51.67 64 51.34 64 51 64 Z " fill="#002A5D" transform="translate(74,0)"/>
<path d="M0 0 C1.65 0 3.3 0 5 0 C6.32 2.97 7.64 5.94 9 9 C10.65 6.03 12.3 3.06 14 0 C20.93 0 27.86 0 35 0 C35 0.66 35 1.32 35 2 C34.34 2 33.68 2 33 2 C33 5.96 33 9.92 33 14 C34.98 14 36.96 14 39 14 C39 13.01 39 12.02 39 11 C39.66 11 40.32 11 41 11 C41 12.65 41 14.3 41 16 C36.99908596 16.74984705 33.23250483 17.1195296 29.1640625 17.09765625 C28.10058594 17.09443359 27.03710938 17.09121094 25.94140625 17.08789062 C24.84699219 17.07951172 23.75257813 17.07113281 22.625 17.0625 C21.50738281 17.05798828 20.38976562 17.05347656 19.23828125 17.04882812 C16.49213196 17.03709244 13.74609414 17.02067363 11 17 C11 16.01 11 15.02 11 14 C11.66 14 12.32 14 13 14 C12.67 13.01 12.34 12.02 12 11 C11.319375 12.2375 11.319375 12.2375 10.625 13.5 C10.08875 14.325 9.5525 15.15 9 16 C8.34 16 7.68 16 7 16 C6.34 14.35 5.68 12.7 5 11 C4.67 11.99 4.34 12.98 4 14 C4.66 14 5.32 14 6 14 C6 14.66 6 15.32 6 16 C1.02936879 16.91297308 -3.02936879 16.91297308 -8 16 C-8 15.34 -8 14.68 -8 14 C-7.34 14 -6.68 14 -6 14 C-6 13.01 -6 12.02 -6 11 C-8.47266765 11.34444881 -8.47266765 11.34444881 -11 12 C-11.33 12.66 -11.66 13.32 -12 14 C-11.34 14 -10.68 14 -10 14 C-10 14.66 -10 15.32 -10 16 C-11.98 16 -13.96 16 -16 16 C-16 15.34 -16 14.68 -16 14 C-15.34 14 -14.68 14 -14 14 C-13.80664062 13.31292969 -13.61328125 12.62585938 -13.4140625 11.91796875 C-13.15367187 11.01691406 -12.89328125 10.11585938 -12.625 9.1875 C-12.36976563 8.29417969 -12.11453125 7.40085938 -11.8515625 6.48046875 C-11 4 -11 4 -9 1 C-8.34 1 -7.68 1 -7 1 C-6.68546875 1.85464844 -6.3709375 2.70929688 -6.046875 3.58984375 C-5.61890625 4.69457031 -5.1909375 5.79929688 -4.75 6.9375 C-4.33234375 8.03964844 -3.9146875 9.14179688 -3.484375 10.27734375 C-2.74960938 11.62505859 -2.74960938 11.62505859 -2 13 C-0.68 13.33 0.64 13.66 2 14 C2 10.04 2 6.08 2 2 C1.34 2 0.68 2 0 2 C0 1.34 0 0.68 0 0 Z M17 2 C17 5.96 17 9.92 17 14 C18.32 14 19.64 14 21 14 C21 10.04 21 6.08 21 2 C19.68 2 18.36 2 17 2 Z M25 2 C25 5.96 25 9.92 25 14 C26.32 14 27.64 14 29 14 C29 10.04 29 6.08 29 2 C27.68 2 26.36 2 25 2 Z M-9 6 C-9.33 6.99 -9.66 7.98 -10 9 C-9.34 9 -8.68 9 -8 9 C-8.33 8.01 -8.66 7.02 -9 6 Z M3 6 C4 8 4 8 4 8 Z " fill="#FFFFFF" transform="translate(195,141)"/>
<path d="M0 0 C3.96 0 7.92 0 12 0 C12.33 1.65 12.66 3.3 13 5 C12.34 5 11.68 5 11 5 C10.67 4.34 10.34 3.68 10 3 C8.68 3 7.36 3 6 3 C6 3.99 6 4.98 6 6 C6.66 6.33 7.32 6.66 8 7 C8 6.34 8 5.68 8 5 C8.66 5 9.32 5 10 5 C10 7.31 10 9.62 10 12 C8.68 11.34 7.36 10.68 6 10 C6 10.99 6 11.98 6 13 C8.97 13.495 8.97 13.495 12 14 C12 13.01 12 12.02 12 11 C12.66 11 13.32 11 14 11 C14.185625 9.741875 14.37125 8.48375 14.5625 7.1875 C14.66691406 6.47980469 14.77132812 5.77210938 14.87890625 5.04296875 C15.13904799 2.7974658 15.13904799 2.7974658 14 0 C16.25 0 16.25 0 19 1 C20.70175879 3.57166744 21.77644187 6.14503103 23 9 C24.65 6.03 26.3 3.06 28 0 C30.24973447 -0.054138 32.49984383 -0.09285491 34.75 -0.125 C36.00296875 -0.14820313 37.2559375 -0.17140625 38.546875 -0.1953125 C41.72820492 -0.01537302 43.36521896 0.31001418 46 2 C45.79375 2.78375 45.5875 3.5675 45.375 4.375 C45.189375 5.674375 45.189375 5.674375 45 7 C45.66 7.66 46.32 8.32 47 9 C47.25 11.5 47.25 11.5 47 14 C43.80065633 17.19934367 40.65666618 16.98298792 36.23046875 17.09765625 C34.88277758 17.09108215 33.53510293 17.07926444 32.1875 17.0625 C31.49462891 17.05798828 30.80175781 17.05347656 30.08789062 17.04882812 C28.39188932 17.03713156 26.69593297 17.01919924 25 17 C25 16.01 25 15.02 25 14 C25.66 14 26.32 14 27 14 C26.67 12.68 26.34 11.36 26 10 C25.01 11.98 24.02 13.96 23 16 C22.34 16 21.68 16 21 16 C20.01 13.69 19.02 11.38 18 9 C18 10.32 18 11.64 18 13 C18.66 13.33 19.32 13.66 20 14 C20 14.66 20 15.32 20 16 C10.595 16.495 10.595 16.495 1 17 C0.67 16.01 0.34 15.02 0 14 C0.66 14 1.32 14 2 14 C2 10.04 2 6.08 2 2 C1.34 2 0.68 2 0 2 C0 1.34 0 0.68 0 0 Z M31 2 C31 5.96 31 9.92 31 14 C32.32 14 33.64 14 35 14 C35 10.04 35 6.08 35 2 C33.68 2 32.36 2 31 2 Z M38 2 C38 3.65 38 5.3 38 7 C39.32 7 40.64 7 42 7 C41.67 5.35 41.34 3.7 41 2 C40.01 2 39.02 2 38 2 Z M38 9 C38 10.65 38 12.3 38 14 C39.65 14 41.3 14 43 14 C43.33 13.01 43.66 12.02 44 11 C43.67 10.34 43.34 9.68 43 9 C41.35 9 39.7 9 38 9 Z " fill="#FFFFFF" transform="translate(52,141)"/>
<path d="M0 0 C44.88 0 89.76 0 136 0 C136 0.99 136 1.98 136 3 C91.12 3 46.24 3 0 3 C0 2.01 0 1.02 0 0 Z " fill="#FFFFFF" transform="translate(0,168)"/>
<path d="M0 0 C7.59 0 15.18 0 23 0 C23 0.66 23 1.32 23 2 C22.34 2 21.68 2 21 2 C21 3.65 21 5.3 21 7 C22.98 7 24.96 7 27 7 C27 5.35 27 3.7 27 2 C26.34 2 25.68 2 25 2 C25 1.34 25 0.68 25 0 C31.6 0 38.2 0 45 0 C45.495 2.475 45.495 2.475 46 5 C45.34 5 44.68 5 44 5 C43.505 4.01 43.505 4.01 43 3 C41.68 3 40.36 3 39 3 C39 3.99 39 4.98 39 6 C39.66 6.33 40.32 6.66 41 7 C41 6.34 41 5.68 41 5 C41.66 5 42.32 5 43 5 C43 7.31 43 9.62 43 12 C41.68 11.34 40.36 10.68 39 10 C39 11.32 39 12.64 39 14 C40.98 14 42.96 14 45 14 C45 13.01 45 12.02 45 11 C45.66 11 46.32 11 47 11 C47 12.65 47 14.3 47 16 C42.14270355 16.97299156 37.5499375 17.12038805 32.625 17.0625 C31.88894531 17.05798828 31.15289063 17.05347656 30.39453125 17.04882812 C28.59631842 17.03715142 26.79814803 17.01922011 25 17 C25 16.01 25 15.02 25 14 C25.66 14 26.32 14 27 14 C27 12.35 27 10.7 27 9 C25.02 9 23.04 9 21 9 C21 10.65 21 12.3 21 14 C21.66 14 22.32 14 23 14 C22.67 14.99 22.34 15.98 22 17 C19.69 17 17.38 17 15 17 C15 16.01 15 15.02 15 14 C15.66 14 16.32 14 17 14 C17 10.04 17 6.08 17 2 C16.34 3.32 15.68 4.64 15 6 C14.67 5.01 14.34 4.02 14 3 C12.35 2.67 10.7 2.34 9 2 C9 5.96 9 9.92 9 14 C9.99 14 10.98 14 12 14 C12 14.66 12 15.32 12 16 C8.04 16.495 8.04 16.495 4 17 C4 16.01 4 15.02 4 14 C4.66 14 5.32 14 6 14 C6 10.04 6 6.08 6 2 C4.02 2.99 2.04 3.98 0 5 C0 3.35 0 1.7 0 0 Z M31 2 C31 5.96 31 9.92 31 14 C32.32 14 33.64 14 35 14 C35 10.04 35 6.08 35 2 C33.68 2 32.36 2 31 2 Z " fill="#FFFFFF" transform="translate(0,141)"/>
<path d="M0 0 C1.10408203 0.46019531 1.10408203 0.46019531 2.23046875 0.9296875 C5.44738033 2.17289451 7.87791399 2.20048541 11.3125 2.125 C12.38113281 2.10695312 13.44976562 2.08890625 14.55078125 2.0703125 C15.76314453 2.03550781 15.76314453 2.03550781 17 2 C17 1.34 17 0.68 17 0 C17.66 0 18.32 0 19 0 C19 0.66 19 1.32 19 2 C19.804375 1.979375 20.60875 1.95875 21.4375 1.9375 C24 2 24 2 25 3 C25.04080783 4.99958364 25.04254356 7.00045254 25 9 C24.34 9 23.68 9 23 9 C23 7.35 23 5.7 23 4 C22.34 4 21.68 4 21 4 C21 5.65 21 7.3 21 9 C17.52254801 10.58969234 14.83557374 11.41465662 11 11 C10.34 10.34 9.68 9.68 9 9 C6.33050591 8.75684344 6.33050591 8.75684344 3.375 8.875 C2.37210938 8.89304688 1.36921875 8.91109375 0.3359375 8.9296875 C-0.82035156 8.96449219 -0.82035156 8.96449219 -2 9 C-2 6.36 -2 3.72 -2 1 C-1.34 0.67 -0.68 0.34 0 0 Z M12 4 C12 4.99 12 5.98 12 7 C12.99 6.67 13.98 6.34 15 6 C14.67 5.34 14.34 4.68 14 4 C13.34 4 12.68 4 12 4 Z " fill="#FFFFFF" transform="translate(198,164)"/>
<path d="M0 0 C1.9375 1.0625 1.9375 1.0625 3 3 C3.49891602 6.92005446 3.55253414 9.11594538 1.4375 12.5 C-1 14 -1 14 -4.5625 13.9375 C-9.47761194 12.59701493 -9.47761194 12.59701493 -11 10 C-11.53520313 6.40649325 -11.44814771 4.68118452 -9.4375 1.625 C-6.1005787 -0.5996142 -3.93094707 -0.50030235 0 0 Z " fill="#E545C9" transform="translate(129,2)"/>
<path d="M0 0 C0.66 0 1.32 0 2 0 C2 0.66 2 1.32 2 2 C2.763125 2 3.52625 2 4.3125 2 C6.20833333 2 8.10416667 2 10 2 C10.73476562 1.98839844 11.46953125 1.97679687 12.2265625 1.96484375 C13.01804688 1.95582031 13.80953125 1.94679687 14.625 1.9375 C15.42164063 1.92589844 16.21828125 1.91429687 17.0390625 1.90234375 C19 2 19 2 20 3 C20.04080783 4.99958364 20.04254356 7.00045254 20 9 C19.195625 9.144375 18.39125 9.28875 17.5625 9.4375 C15.07896294 9.74135249 15.07896294 9.74135249 14 11 C12.33382885 11.04063832 10.66611905 11.042721 9 11 C9 10.01 9 9.02 9 8 C8.01 8.33 7.02 8.66 6 9 C6 7.35 6 5.7 6 4 C5.34 4 4.68 4 4 4 C4 5.65 4 7.3 4 9 C2.02 9 0.04 9 -2 9 C-2 7.35 -2 5.7 -2 4 C-2.66 4 -3.32 4 -4 4 C-4 5.65 -4 7.3 -4 9 C-4.66 9 -5.32 9 -6 9 C-6 6.69 -6 4.38 -6 2 C-4.35 2 -2.7 2 -1 2 C-0.67 1.34 -0.34 0.68 0 0 Z M11 4 C11 4.99 11 5.98 11 7 C11.66 7 12.32 7 13 7 C13 6.01 13 5.02 13 4 C12.34 4 11.68 4 11 4 Z " fill="#FFFFFF" transform="translate(230,164)"/>
<path d="M0 0 C8.57142857 -0.28571429 8.57142857 -0.28571429 12 2 C12.08226668 5.04386724 11.97608217 7.07175348 11 10 C11.38932856 12.14255793 11.38932856 12.14255793 12 14 C12.66 14 13.32 14 14 14 C14 14.66 14 15.32 14 16 C11.6875 15.8125 11.6875 15.8125 9 15 C7.1875 12.4375 7.1875 12.4375 6 10 C5.67 11.32 5.34 12.64 5 14 C5.99 14.33 6.98 14.66 8 15 C8 15.33 8 15.66 8 16 C5.36 16 2.72 16 0 16 C0 15.34 0 14.68 0 14 C0.66 14 1.32 14 2 14 C1.85866501 12.22880197 1.71176792 10.45804713 1.5625 8.6875 C1.48128906 7.70136719 1.40007812 6.71523437 1.31640625 5.69921875 C1.08187441 2.90624401 1.08187441 2.90624401 0 0 Z M5 2 C5 3.65 5 5.3 5 7 C6.32 6.67 7.64 6.34 9 6 C8.34 4.68 7.68 3.36 7 2 C6.34 2 5.68 2 5 2 Z " fill="#FFFFFF" transform="translate(100,141)"/>
<path d="M0 0 C2.912575 0.08566397 4.56798024 0.57910955 6.66796875 2.625 C8.16091772 4.38391375 9.60436262 6.16313019 11 8 C11.33 6.02 11.66 4.04 12 2 C11.34 2 10.68 2 10 2 C10 1.34 10 0.68 10 0 C11.98 0 13.96 0 16 0 C16 0.66 16 1.32 16 2 C15.34 2 14.68 2 14 2 C14 6.62 14 11.24 14 16 C10.51127585 14.83709195 9.90023136 13.86032391 7.8125 10.9375 C7.28269531 10.20402344 6.75289062 9.47054687 6.20703125 8.71484375 C5.80871094 8.14894531 5.41039062 7.58304688 5 7 C4.67 9.31 4.34 11.62 4 14 C4.66 14 5.32 14 6 14 C6 14.66 6 15.32 6 16 C4.02 16 2.04 16 0 16 C0 15.34 0 14.68 0 14 C0.66 14 1.32 14 2 14 C2 10.04 2 6.08 2 2 C1.34 2 0.68 2 0 2 C0 1.34 0 0.68 0 0 Z " fill="#FFFFFF" transform="translate(146,141)"/>
<path d="M0 0 C3.62652055 2.60163431 4.82303105 4.09906719 5.6875 8.5 C5 12 5 12 2.375 15 C-1 17 -1 17 -4.125 17.0625 C-7.40899535 15.84884955 -8.90336848 14.79550869 -11 12 C-12 9.625 -12 9.625 -12 7 C-8.76547376 1.20015985 -6.73656999 -0.79253765 0 0 Z M-7 3 C-8.32701733 8.46936078 -8.32701733 8.46936078 -6.5625 13.5 C-6.046875 13.995 -5.53125 14.49 -5 15 C-1.3090649 14.65714799 -1.3090649 14.65714799 1.375 12.3125 C2.20815264 9.22983524 1.80044982 7.06839098 1 4 C0.34 3.34 -0.32 2.68 -1 2 C-4.7763932 1.7018576 -4.7763932 1.7018576 -7 3 Z " fill="#FFFFFF" transform="translate(140,141)"/>
<path d="M0 0 C2 0 4 0 6 0 C6.33 0.66 6.66 1.32 7 2 C7.7425 1.835 8.485 1.67 9.25 1.5 C13.46735945 0.73320737 17.72152991 1 22 1 C21.34 3.31 20.68 5.62 20 8 C19.34 8 18.68 8 18 8 C18 7.34 18 6.68 18 6 C17.34 6 16.68 6 16 6 C16 6.66 16 7.32 16 8 C15.01 7.67 14.02 7.34 13 7 C11.32706064 7.30027117 9.66014616 7.63557767 8 8 C6.68 8 5.36 8 4 8 C3.67 7.34 3.34 6.68 3 6 C2.67 6.66 2.34 7.32 2 8 C1.34 8 0.68 8 0 8 C0 5.36 0 2.72 0 0 Z " fill="#FFFFFF" transform="translate(172,165)"/>
<path d="M0 0 C2.64 0 5.28 0 8 0 C7.67 0.99 7.34 1.98 7 3 C7.99 4.485 7.99 4.485 9 6 C9.33 4.02 9.66 2.04 10 0 C11.98 0 13.96 0 16 0 C16 0.66 16 1.32 16 2 C15.071875 2.804375 15.071875 2.804375 14.125 3.625 C11.18707456 6.90856373 10.85841365 9.70793174 10 14 C10.66 14 11.32 14 12 14 C11.67 14.99 11.34 15.98 11 17 C8.69 16.67 6.38 16.34 4 16 C4 15.34 4 14.68 4 14 C4.66 14 5.32 14 6 14 C4.91974278 8.5987139 4.26705119 5.69811103 0 2 C0 1.34 0 0.68 0 0 Z " fill="#FFFFFF" transform="translate(113,141)"/>
<path d="M0 0 C3.63 0 7.26 0 11 0 C11.66 1.65 12.32 3.3 13 5 C12.34 5 11.68 5 11 5 C10.67 7.31 10.34 9.62 10 12 C9.34 12 8.68 12 8 12 C8 11.01 8 10.02 8 9 C7.01 9 6.02 9 5 9 C5 10.65 5 12.3 5 14 C5.99 14.33 6.98 14.66 8 15 C8 15.33 8 15.66 8 16 C5.36 16 2.72 16 0 16 C0 15.34 0 14.68 0 14 C0.66 14 1.32 14 2 14 C2 10.04 2 6.08 2 2 C1.34 2 0.68 2 0 2 C0 1.34 0 0.68 0 0 Z M5 2 C5 3.65 5 5.3 5 7 C5.99 6.67 6.98 6.34 8 6 C8 5.34 8 4.68 8 4 C8.66 3.67 9.32 3.34 10 3 C8.35 2.67 6.7 2.34 5 2 Z " fill="#FFFFFF" transform="translate(168,141)"/>
<path d="M0 0 C2.64 0 5.28 0 8 0 C8.33 1.98 8.66 3.96 9 6 C9.99 4.68 10.98 3.36 12 2 C11.34 2 10.68 2 10 2 C10 1.34 10 0.68 10 0 C11.98 0 13.96 0 16 0 C14.9789841 2.19911116 13.99617852 4.00458577 12.4375 5.875 C10.63615871 8.53785234 10.35927759 10.83835725 10 14 C10.99 14.33 11.98 14.66 13 15 C13 15.33 13 15.66 13 16 C10.36 16 7.72 16 5 16 C5 15.34 5 14.68 5 14 C5.66 14 6.32 14 7 14 C5.79244663 8.40134345 4.31280597 5.97232129 0 2 C0 1.34 0 0.68 0 0 Z " fill="#FFFFFF" transform="translate(234,141)"/>
<path d="M0 0 C1.98 0 3.96 0 6 0 C6 0.99 6 1.98 6 3 C7.65 2.67 9.3 2.34 11 2 C11.66 3.32 12.32 4.64 13 6 C12.01 7.485 12.01 7.485 11 9 C10.195625 8.814375 9.39125 8.62875 8.5625 8.4375 C7.716875 8.293125 6.87125 8.14875 6 8 C5.67 8.33 5.34 8.66 5 9 C3.48071962 9.07179964 1.95832518 9.08392007 0.4375 9.0625 C-0.38878906 9.05347656 -1.21507812 9.04445312 -2.06640625 9.03515625 C-2.70449219 9.02355469 -3.34257812 9.01195312 -4 9 C-4 6.36 -4 3.72 -4 1 C-3.34 1 -2.68 1 -2 1 C-2 2.98 -2 4.96 -2 7 C-1.01 7 -0.02 7 1 7 C0.67 4.69 0.34 2.38 0 0 Z " fill="#FFFFFF" transform="translate(150,164)"/>
<path d="M0 0 C2.0625 0.4375 2.0625 0.4375 4 1 C4 2.65 4 4.3 4 6 C2.0625 6.5625 2.0625 6.5625 0 7 C-1 6 -1 6 -1.125 3.5 C-1 1 -1 1 0 0 Z " fill="#FFFFFF" transform="translate(165,166)"/>
<path d="M0 0 C0.66 0 1.32 0 2 0 C2 0.99 2 1.98 2 3 C1.34 3 0.68 3 0 3 C0 2.01 0 1.02 0 0 Z " fill="#FFFFFF" transform="translate(162,164)"/>
</svg>
